<?xml version="1.0" encoding="UTF-8" standalone="no"?>
<!-- Created with Inkscape (http://www.inkscape.org/) -->

<svg
   xmlns:dc="http://purl.org/dc/elements/1.1/"
   xmlns:cc="http://creativecommons.org/ns#"
   xmlns:rdf="http://www.w3.org/1999/02/22-rdf-syntax-ns#"
   xmlns:svg="http://www.w3.org/2000/svg"
   xmlns="http://www.w3.org/2000/svg"
   xmlns:sodipodi="http://sodipodi.sourceforge.net/DTD/sodipodi-0.dtd"
   xmlns:inkscape="http://www.inkscape.org/namespaces/inkscape"
   width="117.49547mm"
   height="97.413658mm"
   viewBox="0 0 117.49547 97.413658"
   version="1.1"
   id="svg8"
   inkscape:version="0.92.5 (2060ec1f9f, 2020-04-08)"
   sodipodi:docname="banner-icon.svg">
  <defs
     id="defs2" />
  <sodipodi:namedview
     id="base"
     pagecolor="#ffffff"
     bordercolor="#666666"
     borderopacity="1.0"
     inkscape:pageopacity="0.0"
     inkscape:pageshadow="2"
     inkscape:zoom="0.24748737"
     inkscape:cx="-389.2241"
     inkscape:cy="-1091.0343"
     inkscape:document-units="mm"
     inkscape:current-layer="layer1"
     showgrid="false"
     fit-margin-top="0"
     fit-margin-left="0"
     fit-margin-right="0"
     fit-margin-bottom="0"
     inkscape:window-width="1280"
     inkscape:window-height="1080"
     inkscape:window-x="2356"
     inkscape:window-y="323"
     inkscape:window-maximized="0" />
  <metadata
     id="metadata5">
    <rdf:RDF>
      <cc:Work
         rdf:about="">
        <dc:format>image/svg+xml</dc:format>
        <dc:type
           rdf:resource="http://purl.org/dc/dcmitype/StillImage" />
        <dc:title />
        <dc:creator>
          <cc:Agent>
            <dc:title>rachelpeharding</dc:title>
          </cc:Agent>
        </dc:creator>
      </cc:Work>
    </rdf:RDF>
  </metadata>
  <g
     inkscape:label="Layer 1"
     inkscape:groupmode="layer"
     id="layer1"
     transform="translate(-73.403772,-182.8259)">
    <path
       style="fill:#0059ae;fill-opacity:1;stroke-width:0.26458332;opacity:0.2"
       d="m 86.559863,279.83077 c -1.40582,-0.72338 -1.72013,-1.01893 -2.30703,-2.16934 -0.68721,-1.34706 -0.66749,-3.3783 0.0464,-4.77765 0.30593,-0.59967 1.58585,-2.17511 2.84427,-3.50097 3.3624,-3.54261 6.93238,-8.49888 6.91497,-9.6002 -0.002,-0.11398 -0.44829,-0.4934 -0.99219,-0.84316 -3.72146,-2.39311 -8.42773,-6.58706 -11.16255,-9.94741 -4.18153,-5.13796 -6.75322,-10.39761 -7.94619,-16.25161 -0.92825,-4.55499 -0.66886,-11.00792 0.62298,-15.49839 2.90962,-10.11388 10.65871,-19.21913 21.65574,-25.44571 19.186197,-10.86332 45.750327,-11.96033 66.408057,-2.74244 12.39335,5.53016 21.82724,14.54245 25.87911,24.72256 1.79203,4.50239 2.37581,7.59689 2.37581,12.59371 0,4.99682 -0.58378,8.09133 -2.37581,12.59372 -6.05267,15.20703 -23.48043,26.97811 -44.58773,30.11552 -6.78771,1.00892 -15.69148,1.06376 -22.20168,0.13674 -3.17421,-0.45199 -3.27932,-0.43082 -5.81481,1.17154 -6.69617,4.23178 -15.14614,7.63875 -22.651217,9.1328 -4.36627,0.8692 -5.51837,0.92249 -6.70814,0.31029 z m 6.17898,-4.54562 c 7.02317,-1.32242 15.910387,-5.07163 22.478707,-9.48298 l 2.25983,-1.51772 3.175,0.48178 c 14.7905,2.24432 29.78425,0.16424 42.06875,-5.83618 12.11021,-5.91529 20.30781,-14.82093 23.08436,-25.07817 0.63883,-2.36 0.70025,-3.01629 0.70025,-7.48172 0,-4.46542 -0.0614,-5.12171 -0.70025,-7.48171 -4.19804,-15.50857 -21.0062,-27.78215 -42.45919,-31.00434 -8.81978,-1.32471 -18.54711,-0.99162 -27.54155,0.94309 -5.99622,1.28979 -13.58566,4.28741 -18.801867,7.42622 -10.31856,6.2091 -17.10166,15.10203 -18.98061,24.88437 -0.62646,3.26151 -0.37707,9.5999 0.49734,12.64071 2.40261,8.35513 7.8604,15.47435 16.2036,21.13622 1.45521,0.98753 3.13811,2.06742 3.73978,2.39974 l 1.09394,0.60424 -1.16656,2.66735 c -0.64161,1.46704 -1.54628,3.26854 -2.01038,4.00333 -1.01363,1.60487 -3.95475,5.31006 -6.52104,8.21516 -1.81071,2.04977 -2.22973,2.88291 -1.56187,3.10553 0.37342,0.12447 0.72336,0.0752 4.44176,-0.62492 z m 20.042477,-25.09749 c -0.3665,-0.28829 -0.76051,-0.91337 -0.87557,-1.38906 -0.11505,-0.47569 -0.24922,-11.55423 -0.29814,-24.61898 -0.0979,-26.14081 -0.17332,-24.85555 1.50993,-25.72599 0.68652,-0.35501 2.43851,-0.39914 13.30999,-0.33521 l 12.51941,0.0736 1.50101,0.79375 c 1.06015,0.56062 3.24702,2.48814 7.4458,6.56276 5.18117,5.02798 6.05647,5.99582 6.81421,7.5347 l 0.86942,1.76568 0.0738,16.4281 0.0738,16.4281 -0.66907,0.98593 c -0.36799,0.54227 -0.66908,1.14651 -0.66908,1.34276 0,0.19625 -0.18833,0.42908 -0.41851,0.51741 -0.23018,0.0883 -9.44147,0.1606 -20.46953,0.1606 -19.58669,0 -20.06644,-0.0121 -20.71739,-0.52417 z m 38.63139,-17.26906 0.0687,-12.89844 h -7.68857 c -8.44642,0 -8.86083,-0.0678 -9.64219,-1.57884 -0.33126,-0.64057 -0.40136,-2.09546 -0.40136,-8.32989 v -7.55377 h -8.99583 -8.99583 v 21.6977 21.6977 l 17.79323,-0.068 17.79323,-0.068 z m -0.70179,-18.12396 c -0.50717,-0.92135 -11.84128,-11.97239 -12.27907,-11.97239 -0.40988,0 -0.44926,0.545 -0.44926,6.21771 v 6.2177 h 6.4916 c 6.10318,0 6.47635,-0.0277 6.23673,-0.46302 z"
       id="path21"
       inkscape:connector-curvature="0"
       sodipodi:nodetypes="ccccccsssssssscscsccccccssscsssscccccccccccsccccccccccscsccccscscccccccccsscsc" />
  </g>
</svg>
